<svg id="Layer_1" data-name="Layer 1" xmlns="http://www.w3.org/2000/svg" viewBox="0 0 47.01 47.01"><defs><style>.cls-1{fill:#0b0014;}</style></defs><path class="cls-1" d="M50,50" transform="translate(-1.5 -1.5)"/><path class="cls-1" d="M0,0" transform="translate(-1.5 -1.5)"/><path d="M43.38,2.38,29.49,16.27l-22,22L2.38,43.38c-2.74,2.73,1.51,7,4.24,4.24L20.51,33.73l22-22,5.07-5.07c2.74-2.73-1.51-7-4.24-4.24Z" transform="translate(-1.5 -1.5)"/><path d="M2.38,6.62,16.27,20.51l22,22,5.07,5.07c2.73,2.74,7-1.51,4.24-4.24L33.73,29.49l-22-22L6.62,2.38C3.89-.36-.36,3.89,2.38,6.62Z" transform="translate(-1.5 -1.5)"/></svg>