<svg id="Layer_1" data-name="Layer 1" xmlns="http://www.w3.org/2000/svg" viewBox="0 0 49 49"><path d="M42.5,24.5v21l3-3H4.5l3,3V4.5l-3,3h20c3.86,0,3.87-6,0-6H4.5a3,3,0,0,0-3,3v41a3,3,0,0,0,3,3h41a3,3,0,0,0,3-3v-21c0-3.86-6-3.87-6,0Z" transform="translate(-1.5 0.5)"/><path d="M45.38.38,25.24,20.51l-2.86,2.87c-2.74,2.73,1.51,7,4.24,4.24L46.76,7.49l2.86-2.87c2.74-2.73-1.51-7-4.24-4.24Z" transform="translate(-1.5 0.5)"/><path d="M35.5,5.5h12l-3-3v12a3,3,0,0,0,6,0V2.5a3,3,0,0,0-3-3h-12a3,3,0,0,0-3,3,3,3,0,0,0,3,3Z" transform="translate(-1.5 0.5)"/></svg>