<svg id="Layer_1" data-name="Layer 1" xmlns="http://www.w3.org/2000/svg" viewBox="0 0 45.8 40"><defs><style>.cls-1{fill:#0b0014;}.cls-2{fill:none;stroke:#000;stroke-miterlimit:10;stroke-width:2px;}</style></defs><path class="cls-1" d="M50,50" transform="translate(-2.1 -5)"/><path class="cls-1" d="M0,0" transform="translate(-2.1 -5)"/><path class="cls-2" d="M0,7" transform="translate(-2.1 -5)"/><path class="cls-2" d="M50,7" transform="translate(-2.1 -5)"/><path d="M5,28H45c3.86,0,3.87-6,0-6H5c-3.86,0-3.87,6,0,6Z" transform="translate(-2.1 -5)"/><path d="M5,11H45c3.86,0,3.87-6,0-6H5c-3.86,0-3.87,6,0,6Z" transform="translate(-2.1 -5)"/><path d="M5,45H45c3.86,0,3.87-6,0-6H5c-3.86,0-3.87,6,0,6Z" transform="translate(-2.1 -5)"/></svg>