<svg id="Layer_1" data-name="Layer 1" xmlns="http://www.w3.org/2000/svg" viewBox="0 0 40 40"><defs><style>.cls-1{fill:#e2e2e2;}</style></defs><path class="cls-1" d="M43.5,42H6.5L8,43.5V6.5L6.5,8h37L42,6.5v37a1.5,1.5,0,0,0,3,0V6.5A1.52,1.52,0,0,0,43.5,5H6.5A1.52,1.52,0,0,0,5,6.5v37A1.52,1.52,0,0,0,6.5,45h37A1.5,1.5,0,0,0,43.5,42Z" transform="translate(-5 -5)"/><path class="cls-1" d="M43.5,15H6.5L8,16.5V6.5L6.5,8h37L42,6.5v10a1.5,1.5,0,0,0,3,0V6.5A1.52,1.52,0,0,0,43.5,5H6.5A1.52,1.52,0,0,0,5,6.5v10A1.52,1.52,0,0,0,6.5,18h37A1.5,1.5,0,0,0,43.5,15Z" transform="translate(-5 -5)"/><path class="cls-1" d="M19.5,42H6.5L8,43.5v-27L6.5,18h13L18,16.5v27a1.5,1.5,0,0,0,3,0v-27A1.52,1.52,0,0,0,19.5,15H6.5A1.52,1.52,0,0,0,5,16.5v27A1.52,1.52,0,0,0,6.5,45h13A1.5,1.5,0,0,0,19.5,42Z" transform="translate(-5 -5)"/></svg>